<svg xmlns="http://www.w3.org/2000/svg" xmlns:xlink="http://www.w3.org/1999/xlink" width="150"
    zoomAndPan="magnify" viewBox="0 0 112.5 112.499997" height="150"
    preserveAspectRatio="xMidYMid meet" version="1.0">
    <defs>
        <clipPath id="35b40b2407">
            <path
                d="M 52.265625 34.308594 L 59.730469 34.308594 L 59.730469 111.964844 L 52.265625 111.964844 Z M 52.265625 34.308594 "
                clip-rule="nonzero" />
        </clipPath>
        <clipPath id="d9fd155db1">
            <path
                d="M 32.636719 0 L 79.675781 0 L 79.675781 46.292969 L 32.636719 46.292969 Z M 32.636719 0 "
                clip-rule="nonzero" />
        </clipPath>
    </defs>
    <g clip-path="url(#35b40b2407)">
        <path fill="#231f20"
            d="M 52.96875 111.558594 L 56 106.316406 L 59.027344 111.558594 Z M 56 105.503906 L 52.265625 111.964844 L 59.730469 111.964844 Z M 52.96875 102.660156 L 56 97.417969 L 59.027344 102.660156 Z M 56 96.605469 L 52.265625 103.066406 L 59.730469 103.066406 Z M 52.96875 93.761719 L 56 88.519531 L 59.027344 93.761719 Z M 56 87.707031 L 52.265625 94.167969 L 59.730469 94.167969 Z M 52.96875 84.859375 L 56 79.617188 L 59.027344 84.859375 Z M 56 78.804688 L 52.265625 85.269531 L 59.730469 85.269531 Z M 52.96875 75.960938 L 56 70.71875 L 59.027344 75.960938 Z M 56 69.90625 L 52.265625 76.367188 L 59.730469 76.367188 Z M 52.96875 67.0625 L 56 61.820312 L 59.027344 67.0625 Z M 56 61.007812 L 52.265625 67.46875 L 59.730469 67.46875 Z M 52.96875 58.164062 L 56 52.921875 L 59.027344 58.164062 Z M 56 52.109375 L 52.265625 58.570312 L 59.730469 58.570312 Z M 52.96875 49.265625 L 56 44.023438 L 59.027344 49.265625 Z M 56 43.210938 L 52.265625 49.671875 L 59.730469 49.671875 Z M 59.027344 40.363281 L 52.96875 40.363281 L 56 35.121094 Z M 52.265625 40.769531 L 59.730469 40.769531 L 56 34.308594 L 52.265625 40.769531 "
            fill-opacity="1" fill-rule="nonzero" />
    </g>
    <g clip-path="url(#d9fd155db1)">
        <path fill="#000000"
            d="M 55.824219 16.726562 C 55.164062 19.855469 52.699219 22.3125 49.574219 22.960938 L 32.636719 23.132812 L 49.570312 23.300781 C 52.695312 23.949219 55.160156 26.40625 55.824219 29.527344 L 56 46.261719 L 56.171875 29.527344 C 56.835938 26.414062 59.289062 23.960938 62.40625 23.304688 L 79.359375 23.144531 L 62.445312 22.964844 C 59.3125 22.320312 56.839844 19.867188 56.175781 16.738281 L 56.003906 0 Z M 55.824219 16.726562 "
            fill-opacity="1" fill-rule="evenodd" />
    </g>
</svg>