<svg xmlns="http://www.w3.org/2000/svg" xmlns:xlink="http://www.w3.org/1999/xlink" width="150" zoomAndPan="magnify" viewBox="0 0 112.5 112.499997" height="150" preserveAspectRatio="xMidYMid meet" version="1.0"><defs><clipPath id="8e9483f5af"><path d="M 0 0 L 111.992188 0 L 111.992188 111.992188 L 0 111.992188 Z M 0 0 " clip-rule="nonzero"/></clipPath><clipPath id="ab1c6cc24c"><path d="M 10.296875 11.199219 L 101.707031 11.199219 L 101.707031 100.800781 L 10.296875 100.800781 Z M 10.296875 11.199219 " clip-rule="nonzero"/></clipPath><clipPath id="8fd5f79db0"><path d="M 23 22.402344 L 88.671875 22.402344 L 88.671875 88 L 23 88 Z M 23 22.402344 " clip-rule="nonzero"/></clipPath></defs><g clip-path="url(#8e9483f5af)"><path fill="#000000" d="M 94.265625 28.199219 C 94.265625 31.46875 91.609375 34.121094 88.335938 34.121094 L 23.65625 34.121094 C 20.382812 34.121094 17.730469 31.46875 17.730469 28.199219 C 17.730469 24.925781 20.382812 22.273438 23.65625 22.273438 L 88.335938 22.273438 C 91.609375 22.273438 94.265625 24.925781 94.265625 28.199219 Z M 94.265625 56.1875 C 94.265625 59.460938 91.609375 62.113281 88.335938 62.113281 L 23.65625 62.113281 C 20.382812 62.113281 17.730469 59.460938 17.730469 56.1875 L 17.730469 55.808594 C 17.730469 52.535156 20.382812 49.882812 23.65625 49.882812 L 88.335938 49.882812 C 91.609375 49.882812 94.265625 52.535156 94.265625 55.808594 Z M 94.265625 83.796875 C 94.265625 87.070312 91.609375 89.722656 88.335938 89.722656 L 23.65625 89.722656 C 20.382812 89.722656 17.730469 87.070312 17.730469 83.796875 L 17.730469 83.785156 C 17.730469 80.511719 20.382812 77.859375 23.65625 77.859375 L 88.335938 77.859375 C 91.609375 77.859375 94.265625 80.511719 94.265625 83.785156 Z M 99.226562 0 L 12.765625 0 C 5.714844 0 0 5.71875 0 12.769531 L 0 99.226562 C 0 106.277344 5.714844 111.992188 12.765625 111.992188 L 99.226562 111.992188 C 106.277344 111.992188 111.992188 106.277344 111.992188 99.226562 L 111.992188 12.769531 C 111.992188 5.71875 106.277344 0 99.226562 0 " fill-opacity="1" fill-rule="nonzero"/></g><g clip-path="url(#ab1c6cc24c)"><path fill="#000000" d="M 10.296875 11.199219 L 101.707031 11.199219 L 101.707031 100.800781 L 10.296875 100.800781 Z M 10.296875 11.199219 " fill-opacity="1" fill-rule="nonzero"/></g><g clip-path="url(#8fd5f79db0)"><path fill="#ffffff" d="M 87.136719 79.785156 C 89.011719 81.660156 89.011719 84.703125 87.136719 86.574219 C 85.261719 88.449219 82.21875 88.449219 80.347656 86.574219 L 55.980469 62.207031 L 31.613281 86.574219 C 29.738281 88.449219 26.695312 88.449219 24.820312 86.574219 C 22.949219 84.703125 22.949219 81.660156 24.820312 79.785156 L 49.1875 55.417969 L 24.820312 31.050781 C 22.949219 29.175781 22.949219 26.132812 24.820312 24.261719 C 26.695312 22.386719 29.738281 22.386719 31.613281 24.261719 L 55.980469 48.628906 L 80.347656 24.261719 C 82.21875 22.386719 85.261719 22.386719 87.136719 24.261719 C 89.011719 26.132812 89.011719 29.175781 87.136719 31.050781 L 62.769531 55.417969 Z M 87.136719 79.785156 " fill-opacity="1" fill-rule="nonzero"/></g></svg>