<svg xmlns="http://www.w3.org/2000/svg" xmlns:xlink="http://www.w3.org/1999/xlink" width="150" zoomAndPan="magnify" viewBox="0 0 112.5 112.499997" height="150" preserveAspectRatio="xMidYMid meet" version="1.0"><defs><clipPath id="41c06abdef"><path d="M 0 0 L 111.992188 0 L 111.992188 111.992188 L 0 111.992188 Z M 0 0 " clip-rule="nonzero"/></clipPath></defs><g clip-path="url(#41c06abdef)"><path fill="#000000" d="M 94.265625 28.199219 C 94.265625 31.46875 91.609375 34.121094 88.335938 34.121094 L 23.65625 34.121094 C 20.382812 34.121094 17.730469 31.46875 17.730469 28.199219 C 17.730469 24.925781 20.382812 22.273438 23.65625 22.273438 L 88.335938 22.273438 C 91.609375 22.273438 94.265625 24.925781 94.265625 28.199219 Z M 94.265625 56.1875 C 94.265625 59.460938 91.609375 62.113281 88.335938 62.113281 L 23.65625 62.113281 C 20.382812 62.113281 17.730469 59.460938 17.730469 56.1875 L 17.730469 55.808594 C 17.730469 52.535156 20.382812 49.882812 23.65625 49.882812 L 88.335938 49.882812 C 91.609375 49.882812 94.265625 52.535156 94.265625 55.808594 Z M 94.265625 83.796875 C 94.265625 87.070312 91.609375 89.722656 88.335938 89.722656 L 23.65625 89.722656 C 20.382812 89.722656 17.730469 87.070312 17.730469 83.796875 L 17.730469 83.785156 C 17.730469 80.511719 20.382812 77.859375 23.65625 77.859375 L 88.335938 77.859375 C 91.609375 77.859375 94.265625 80.511719 94.265625 83.785156 Z M 99.226562 0 L 12.765625 0 C 5.714844 0 0 5.71875 0 12.769531 L 0 99.226562 C 0 106.277344 5.714844 111.992188 12.765625 111.992188 L 99.226562 111.992188 C 106.277344 111.992188 111.992188 106.277344 111.992188 99.226562 L 111.992188 12.769531 C 111.992188 5.71875 106.277344 0 99.226562 0 " fill-opacity="1" fill-rule="nonzero"/></g></svg>