<svg xmlns="http://www.w3.org/2000/svg" xmlns:xlink="http://www.w3.org/1999/xlink" width="150" zoomAndPan="magnify" viewBox="0 0 112.5 112.499997" height="150" preserveAspectRatio="xMidYMid meet" version="1.0"><defs><g/><clipPath id="c39fa2c2f1"><path d="M 59.015625 37.128906 L 111.972656 37.128906 L 111.972656 83.421875 L 59.015625 83.421875 Z M 59.015625 37.128906 " clip-rule="nonzero"/></clipPath></defs><g clip-path="url(#c39fa2c2f1)"><path fill="#070808" d="M 101.421875 55.644531 C 101.257812 55.527344 101.113281 55.414062 100.957031 55.3125 C 100.46875 55.007812 99.925781 54.824219 99.371094 54.691406 C 98.570312 54.503906 97.753906 54.402344 96.9375 54.335938 C 96.191406 54.277344 95.449219 54.234375 94.703125 54.179688 C 94.59375 54.171875 94.484375 54.160156 94.375 54.132812 C 94.863281 54.101562 95.351562 54.074219 95.839844 54.039062 C 96.832031 53.964844 97.828125 53.894531 98.808594 53.710938 C 99.4375 53.59375 100.054688 53.433594 100.636719 53.152344 C 101.382812 52.785156 101.914062 52.214844 102.253906 51.457031 C 102.523438 50.851562 102.667969 50.214844 102.777344 49.570312 C 102.917969 48.734375 102.996094 47.894531 103.050781 47.054688 C 103.089844 46.460938 103.132812 45.867188 103.1875 45.273438 C 103.195312 45.382812 103.210938 45.492188 103.214844 45.601562 C 103.273438 46.746094 103.34375 47.890625 103.492188 49.027344 C 103.589844 49.777344 103.726562 50.523438 104.003906 51.230469 C 104.070312 51.40625 104.15625 51.574219 104.242188 51.761719 C 104.277344 51.714844 104.300781 51.695312 104.316406 51.671875 C 105.417969 50.003906 106.429688 48.289062 107.246094 46.460938 C 107.699219 45.4375 108.085938 44.386719 108.328125 43.285156 C 108.457031 42.6875 108.539062 42.082031 108.527344 41.464844 C 108.519531 41.105469 108.480469 40.75 108.386719 40.402344 C 108.152344 39.535156 107.628906 38.925781 106.804688 38.574219 C 106.335938 38.371094 105.839844 38.273438 105.328125 38.234375 C 104.324219 38.152344 103.339844 38.277344 102.359375 38.480469 C 100.601562 38.851562 98.929688 39.46875 97.289062 40.183594 C 95.34375 41.035156 93.480469 42.046875 91.644531 43.105469 C 88.785156 44.753906 85.996094 46.503906 83.324219 48.4375 C 83.28125 48.46875 83.242188 48.5 83.195312 48.515625 C 83.171875 48.523438 83.128906 48.507812 83.113281 48.488281 C 83.101562 48.46875 83.101562 48.425781 83.113281 48.402344 C 83.128906 48.371094 83.160156 48.347656 83.191406 48.324219 C 86.007812 45.988281 88.890625 43.738281 92.039062 41.863281 C 94.136719 40.613281 96.304688 39.496094 98.578125 38.59375 C 99.867188 38.082031 101.183594 37.652344 102.546875 37.382812 C 103.464844 37.199219 104.390625 37.09375 105.332031 37.136719 C 105.890625 37.167969 106.441406 37.253906 106.972656 37.4375 C 108.386719 37.925781 109.238281 38.914062 109.546875 40.378906 C 109.71875 41.1875 109.691406 41.996094 109.566406 42.808594 C 109.347656 44.269531 108.851562 45.648438 108.253906 46.992188 C 107.453125 48.785156 106.464844 50.472656 105.390625 52.109375 C 105.265625 52.296875 105.140625 52.484375 105.003906 52.691406 C 105.0625 52.734375 105.113281 52.78125 105.164062 52.820312 C 105.632812 53.167969 106.160156 53.371094 106.714844 53.523438 C 107.503906 53.742188 108.308594 53.855469 109.121094 53.925781 C 110.070312 54.003906 111.019531 54.070312 111.972656 54.15625 C 111.765625 54.167969 111.558594 54.183594 111.351562 54.195312 C 110.144531 54.273438 108.9375 54.347656 107.742188 54.539062 C 107.171875 54.632812 106.613281 54.765625 106.070312 54.972656 C 105.011719 55.378906 104.320312 56.128906 103.945312 57.199219 C 103.710938 57.871094 103.578125 58.570312 103.488281 59.277344 C 103.34375 60.382812 103.269531 61.496094 103.210938 62.609375 C 103.203125 62.792969 103.1875 62.972656 103.164062 63.15625 C 103.148438 62.835938 103.128906 62.519531 103.109375 62.199219 C 103.035156 61.050781 102.964844 59.898438 102.78125 58.757812 C 102.671875 58.085938 102.519531 57.425781 102.238281 56.800781 C 102.210938 56.738281 102.175781 56.679688 102.136719 56.597656 C 102.097656 56.640625 102.066406 56.667969 102.042969 56.699219 C 97.730469 62.066406 92.835938 66.847656 87.515625 71.191406 C 84.605469 73.566406 81.574219 75.769531 78.386719 77.75 C 76.179688 79.121094 73.914062 80.375 71.539062 81.414062 C 70.058594 82.0625 68.550781 82.621094 66.980469 83.003906 C 66.046875 83.230469 65.101562 83.390625 64.136719 83.417969 C 63.273438 83.445312 62.421875 83.371094 61.601562 83.0625 C 60.230469 82.550781 59.414062 81.558594 59.125 80.121094 C 58.96875 79.359375 58.992188 78.59375 59.105469 77.828125 C 59.316406 76.394531 59.796875 75.042969 60.386719 73.730469 C 61.210938 71.890625 62.238281 70.171875 63.367188 68.507812 C 64.28125 67.15625 65.265625 65.859375 66.296875 64.597656 C 66.367188 64.507812 66.4375 64.421875 66.519531 64.320312 C 66.441406 64.273438 66.382812 64.234375 66.316406 64.199219 C 65.753906 63.898438 65.140625 63.734375 64.519531 63.617188 C 63.496094 63.425781 62.457031 63.339844 61.417969 63.273438 C 60.960938 63.246094 60.507812 63.214844 60.050781 63.1875 C 60.023438 63.183594 59.996094 63.179688 59.96875 63.148438 C 60.167969 63.136719 60.363281 63.128906 60.558594 63.113281 C 61.558594 63.03125 62.558594 62.964844 63.554688 62.859375 C 64.335938 62.777344 65.105469 62.625 65.839844 62.34375 C 66.597656 62.054688 67.214844 61.59375 67.632812 60.886719 C 67.925781 60.390625 68.105469 59.847656 68.234375 59.285156 C 68.421875 58.472656 68.519531 57.648438 68.585938 56.820312 C 68.652344 56.003906 68.703125 55.183594 68.761719 54.367188 C 68.761719 54.339844 68.765625 54.308594 68.785156 54.28125 C 68.816406 54.792969 68.84375 55.308594 68.882812 55.824219 C 68.953125 56.886719 69.035156 57.949219 69.242188 58.992188 C 69.34375 59.5 69.476562 60 69.691406 60.472656 C 69.707031 60.511719 69.730469 60.550781 69.761719 60.609375 C 69.820312 60.546875 69.875 60.496094 69.921875 60.441406 C 71.1875 59.09375 72.476562 57.769531 73.824219 56.5 C 74.023438 56.3125 74.230469 56.128906 74.441406 55.945312 C 74.492188 55.902344 74.554688 55.8125 74.628906 55.890625 C 74.703125 55.96875 74.613281 56.03125 74.566406 56.082031 C 74.296875 56.371094 74.027344 56.664062 73.753906 56.949219 C 72.519531 58.242188 71.304688 59.550781 70.144531 60.90625 C 70.105469 60.953125 70.066406 61.003906 70.019531 61.058594 C 70.144531 61.253906 70.289062 61.429688 70.453125 61.582031 C 70.894531 62.003906 71.425781 62.265625 71.996094 62.449219 C 72.855469 62.726562 73.742188 62.855469 74.636719 62.9375 C 75.441406 63.011719 76.246094 63.0625 77.054688 63.121094 C 77.222656 63.132812 77.390625 63.140625 77.558594 63.179688 C 77.359375 63.191406 77.160156 63.203125 76.960938 63.214844 C 75.792969 63.292969 74.621094 63.359375 73.464844 63.542969 C 72.832031 63.640625 72.207031 63.78125 71.609375 64.019531 C 70.582031 64.425781 69.910156 65.167969 69.546875 66.207031 C 69.28125 66.953125 69.136719 67.726562 69.058594 68.511719 C 68.964844 69.457031 68.898438 70.40625 68.824219 71.355469 C 68.804688 71.628906 68.792969 71.90625 68.773438 72.210938 C 68.703125 71.25 68.648438 70.316406 68.570312 69.386719 C 68.492188 68.464844 68.382812 67.542969 68.128906 66.648438 C 67.984375 66.136719 67.796875 65.644531 67.480469 65.210938 C 67.359375 65.042969 67.222656 64.890625 67.050781 64.679688 C 67.023438 64.742188 67.019531 64.777344 67 64.800781 C 65.308594 67.066406 63.722656 69.402344 62.390625 71.898438 C 61.703125 73.183594 61.09375 74.503906 60.648438 75.890625 C 60.390625 76.691406 60.191406 77.503906 60.121094 78.34375 C 60.074219 78.886719 60.085938 79.425781 60.203125 79.960938 C 60.441406 81.054688 61.105469 81.75 62.160156 82.074219 C 62.859375 82.289062 63.574219 82.328125 64.300781 82.285156 C 65.75 82.199219 67.144531 81.839844 68.515625 81.375 C 70.445312 80.722656 72.285156 79.871094 74.085938 78.917969 C 76.855469 77.449219 79.496094 75.765625 82.042969 73.9375 C 88.460938 69.328125 94.273438 64.046875 99.4375 58.054688 C 100.0625 57.332031 100.65625 56.582031 101.265625 55.84375 C 101.3125 55.785156 101.355469 55.726562 101.421875 55.644531 " fill-opacity="1" fill-rule="nonzero"/></g><path stroke-linecap="butt" transform="matrix(1.301799, 0, 0, 1.301799, 2.240046, 40.89038)" fill="none" stroke-linejoin="miter" d="M 1.378946 8.40202 L 4.454616 1.395492 L 4.667663 1.395492 L 7.908369 8.86112 C 8.028395 9.131179 8.14242 9.335223 8.250444 9.467252 C 8.358467 9.59628 8.469491 9.683299 8.589518 9.725308 C 8.709544 9.764317 8.87458 9.782321 9.084626 9.782321 L 9.084626 10.001369 L 5.699888 10.001369 L 5.699888 9.782321 C 5.98795 9.782321 6.203998 9.73131 6.348029 9.629287 C 6.49206 9.524265 6.564076 9.386234 6.564076 9.209196 C 6.564076 9.056163 6.513065 8.867121 6.408042 8.642072 L 5.783906 7.228764 L 2.462182 7.228764 L 1.775032 8.798106 C 1.694014 8.960142 1.655006 9.104173 1.655006 9.233201 C 1.655006 9.599281 1.952071 9.782321 2.543199 9.782321 L 2.543199 10.001369 L 0.166681 10.001369 L 0.166681 9.782321 C 0.367725 9.758316 0.52976 9.701303 0.652787 9.611284 C 0.778815 9.518263 0.889839 9.386234 0.988861 9.209196 C 1.090883 9.032157 1.219911 8.765099 1.378946 8.40202 Z M 5.591864 6.772665 L 4.127545 3.423935 L 2.663226 6.772665 Z M 16.106156 3.579969 L 15.899111 3.579969 C 15.821094 3.123869 15.671061 2.784795 15.455014 2.568748 C 15.238967 2.3467 14.938902 2.235676 14.554818 2.235676 L 11.95025 2.235676 L 11.95025 5.416369 L 14.086716 5.416369 C 14.4708 5.416369 14.743859 5.320348 14.902894 5.128306 C 15.064929 4.936264 15.148948 4.633198 15.154949 4.216107 L 15.373997 4.216107 L 15.373997 7.120741 L 15.154949 7.120741 C 15.154949 6.70365 15.076932 6.397583 14.914897 6.196539 C 14.755862 5.995495 14.4708 5.896474 14.062711 5.896474 L 11.95025 5.896474 L 11.95025 8.90613 C 11.95025 9.314219 12.112286 9.518263 12.430355 9.518263 L 14.542815 9.518263 C 14.983912 9.518263 15.370996 9.386234 15.707069 9.119176 C 16.043143 8.849117 16.316202 8.462033 16.523247 7.948921 L 16.775302 7.948921 L 16.106156 10.001369 L 9.465709 10.001369 L 9.465709 9.782321 C 9.8828 9.782321 10.185866 9.713306 10.371906 9.575276 C 10.560947 9.434245 10.656968 9.173188 10.656968 8.786104 L 10.656968 2.883817 C 10.656968 2.562747 10.560947 2.331697 10.371906 2.190666 C 10.185866 2.043634 9.8828 1.971618 9.465709 1.971618 L 9.465709 1.755571 L 16.010135 1.755571 Z M 24.528993 3.627979 L 24.300943 3.627979 C 24.186918 2.730784 23.703813 2.283686 22.848626 2.283686 L 21.468325 2.283686 L 21.468325 8.873123 C 21.468325 9.2302 21.570348 9.473253 21.777393 9.599281 C 21.987439 9.722308 22.284503 9.782321 22.668587 9.782321 L 22.668587 10.001369 L 18.971781 10.001369 L 18.971781 9.782321 C 19.394873 9.782321 19.70094 9.713306 19.889981 9.569274 C 20.079022 9.425243 20.172043 9.164186 20.172043 8.786104 L 20.172043 2.283686 L 18.707723 2.283686 C 18.332642 2.283686 18.020574 2.39471 17.768519 2.613758 C 17.516464 2.835806 17.372432 3.17188 17.339425 3.627979 L 17.123378 3.627979 L 17.183391 1.755571 L 24.46898 1.755571 Z M 28.726908 1.971618 L 28.654892 1.971618 C 28.255805 1.971618 27.967742 2.043634 27.784702 2.190666 C 27.604663 2.331697 27.514644 2.592753 27.514644 2.967835 L 27.514644 5.416369 L 31.574529 5.416369 L 31.574529 2.955833 C 31.574529 2.580751 31.481508 2.322695 31.295468 2.184664 C 31.112428 2.043634 30.818364 1.971618 30.419277 1.971618 L 30.347261 1.971618 L 30.347261 1.755571 L 34.068072 1.755571 L 34.068072 1.971618 C 33.64498 1.971618 33.338913 2.040633 33.149872 2.178663 C 32.960831 2.313693 32.867811 2.580751 32.867811 2.979838 L 32.867811 8.798106 C 32.867811 9.191192 32.960831 9.45525 33.149872 9.587278 C 33.338913 9.716306 33.64498 9.782321 34.068072 9.782321 L 34.068072 10.001369 L 30.347261 10.001369 L 30.347261 9.782321 C 30.788357 9.782321 31.100425 9.716306 31.289466 9.587278 C 31.478508 9.45525 31.574529 9.188191 31.574529 8.786104 L 31.574529 5.896474 L 27.514644 5.896474 L 27.514644 8.786104 C 27.514644 9.188191 27.610664 9.45525 27.796705 9.587278 C 27.985746 9.716306 28.297814 9.782321 28.726908 9.782321 L 28.726908 10.001369 L 25.030102 10.001369 L 25.030102 9.782321 C 25.456195 9.77632 25.759261 9.704304 25.942301 9.569274 C 26.128341 9.431244 26.221362 9.173188 26.221362 8.786104 L 26.221362 2.955833 C 26.221362 2.586752 26.128341 2.331697 25.942301 2.190666 C 25.759261 2.043634 25.474199 1.971618 25.093116 1.971618 L 25.030102 1.971618 L 25.030102 1.755571 L 28.726908 1.755571 Z M 41.341658 3.579969 L 41.137613 3.579969 C 41.056596 3.123869 40.906563 2.784795 40.690516 2.568748 C 40.47747 2.3467 40.177404 2.235676 39.79032 2.235676 L 37.188753 2.235676 L 37.188753 5.416369 L 39.322218 5.416369 C 39.706301 5.416369 39.979361 5.320348 40.141396 5.128306 C 40.300431 4.936264 40.384449 4.633198 40.393451 4.216107 L 40.609498 4.216107 L 40.609498 7.120741 L 40.393451 7.120741 C 40.393451 6.70365 40.312434 6.397583 40.153399 6.196539 C 39.991364 5.995495 39.706301 5.896474 39.298212 5.896474 L 37.188753 5.896474 L 37.188753 8.90613 C 37.188753 9.314219 37.347787 9.518263 37.668857 9.518263 L 39.781318 9.518263 C 40.219413 9.518263 40.606498 9.386234 40.942571 9.119176 C 41.278644 8.849117 41.551704 8.462033 41.76175 7.948921 L 42.013805 7.948921 L 41.341658 10.001369 L 34.704211 10.001369 L 34.704211 9.782321 C 35.118301 9.782321 35.421367 9.713306 35.607408 9.575276 C 35.796449 9.434245 35.89247 9.173188 35.89247 8.786104 L 35.89247 2.883817 C 35.89247 2.562747 35.796449 2.331697 35.607408 2.190666 C 35.421367 2.043634 35.118301 1.971618 34.704211 1.971618 L 34.704211 1.755571 L 41.245637 1.755571 Z M 49.164363 3.904039 C 49.164363 4.408149 48.993326 4.843244 48.648251 5.206323 C 48.306176 5.569402 47.781062 5.839461 47.075908 6.0165 L 48.984324 8.381015 C 49.215375 8.666077 49.410417 8.897128 49.572452 9.071166 C 49.731487 9.242203 49.92953 9.398237 50.166582 9.539268 C 50.403634 9.677298 50.664691 9.758316 50.952753 9.782321 L 50.952753 10.001369 L 48.804285 10.001369 L 45.695607 6.136526 L 44.906435 6.136526 L 44.906435 8.810109 C 44.906435 9.164186 44.993454 9.416241 45.173493 9.563273 C 45.353533 9.710305 45.635594 9.782321 46.022678 9.782321 L 46.067688 9.782321 L 46.067688 10.001369 L 42.466903 10.001369 L 42.466903 9.782321 C 42.850987 9.782321 43.13905 9.716306 43.32509 9.581277 C 43.514132 9.443247 43.607152 9.200194 43.607152 8.849117 L 43.607152 2.883817 C 43.607152 2.562747 43.514132 2.331697 43.32509 2.190666 C 43.13905 2.043634 42.850987 1.971618 42.466903 1.971618 L 42.466903 1.755571 L 46.319743 1.755571 C 47.102914 1.755571 47.77206 1.93261 48.330182 2.286687 C 48.885303 2.637763 49.164363 3.177881 49.164363 3.904039 Z M 44.906435 2.39171 L 44.906435 5.728437 L 45.2035 5.728437 C 46.013677 5.728437 46.62581 5.569402 47.0399 5.254334 C 47.456991 4.936264 47.664036 4.501169 47.664036 3.940047 C 47.664036 3.453941 47.508002 3.03685 47.189933 2.694776 C 46.874864 2.3467 46.427767 2.175663 45.851641 2.175663 C 45.539573 2.175663 45.224504 2.247678 44.906435 2.39171 Z M 55.309703 1.971618 C 54.97363 1.971618 54.715574 2.001625 54.538535 2.064638 C 54.361496 2.121651 54.23847 2.229674 54.166454 2.385708 C 54.097439 2.541742 54.061431 2.769792 54.061431 3.066857 L 54.061431 8.798106 C 54.061431 9.071166 54.106441 9.278211 54.19346 9.419242 C 54.280479 9.557272 54.412508 9.653293 54.589546 9.701303 C 54.763584 9.749314 55.003636 9.77632 55.309703 9.782321 L 55.309703 10.001369 L 51.513876 10.001369 L 51.513876 9.782321 C 51.834946 9.77632 52.080999 9.749314 52.255037 9.701303 C 52.426075 9.653293 52.552102 9.557272 52.63612 9.419242 C 52.720139 9.278211 52.762148 9.068165 52.762148 8.786104 L 52.762148 3.066857 C 52.762148 2.769792 52.72614 2.544743 52.648123 2.39171 C 52.576107 2.238676 52.45008 2.133653 52.276042 2.076641 C 52.105005 2.013627 51.849949 1.98062 51.513876 1.971618 L 51.513876 1.755571 L 55.309703 1.755571 Z M 56.879045 8.40202 L 59.954716 1.395492 L 60.167762 1.395492 L 63.408469 8.86112 C 63.528495 9.131179 63.64252 9.335223 63.750543 9.467252 C 63.858567 9.59628 63.972592 9.683299 64.089617 9.725308 C 64.212644 9.764317 64.37768 9.782321 64.584725 9.782321 L 64.584725 10.001369 L 61.202988 10.001369 L 61.202988 9.782321 C 61.48805 9.782321 61.704097 9.73131 61.848129 9.629287 C 61.99216 9.524265 62.067176 9.386234 62.067176 9.209196 C 62.067176 9.056163 62.013165 8.867121 61.908142 8.642072 L 61.284006 7.228764 L 57.962281 7.228764 L 57.275132 8.798106 C 57.197115 8.960142 57.155105 9.104173 57.155105 9.233201 C 57.155105 9.599281 57.45217 9.782321 58.043299 9.782321 L 58.043299 10.001369 L 55.666781 10.001369 L 55.666781 9.782321 C 55.867825 9.758316 56.02986 9.701303 56.152887 9.611284 C 56.278914 9.518263 56.389939 9.386234 56.491961 9.209196 C 56.590983 9.032157 56.720011 8.765099 56.879045 8.40202 Z M 61.091964 6.772665 L 59.627645 3.423935 L 58.163325 6.772665 Z M 61.091964 6.772665 " stroke="#000000" stroke-width="0.9" stroke-opacity="1" stroke-miterlimit="4"/><g fill="#000000" fill-opacity="1"><g transform="translate(2.240046, 53.908375)"><g><path d="M 1.796875 -2.078125 L 5.796875 -11.203125 L 6.078125 -11.203125 L 10.296875 -1.484375 C 10.453125 -1.128906 10.597656 -0.863281 10.734375 -0.6875 C 10.878906 -0.519531 11.03125 -0.410156 11.1875 -0.359375 C 11.34375 -0.304688 11.554688 -0.28125 11.828125 -0.28125 L 11.828125 0 L 7.421875 0 L 7.421875 -0.28125 C 7.796875 -0.28125 8.078125 -0.347656 8.265625 -0.484375 C 8.453125 -0.617188 8.546875 -0.800781 8.546875 -1.03125 C 8.546875 -1.226562 8.476562 -1.472656 8.34375 -1.765625 L 7.53125 -3.609375 L 3.203125 -3.609375 L 2.3125 -1.5625 C 2.207031 -1.351562 2.15625 -1.164062 2.15625 -1 C 2.15625 -0.519531 2.539062 -0.28125 3.3125 -0.28125 L 3.3125 0 L 0.21875 0 L 0.21875 -0.28125 C 0.476562 -0.3125 0.6875 -0.382812 0.84375 -0.5 C 1.007812 -0.625 1.15625 -0.800781 1.28125 -1.03125 C 1.414062 -1.257812 1.585938 -1.609375 1.796875 -2.078125 Z M 7.28125 -4.203125 L 5.375 -8.5625 L 3.46875 -4.203125 Z M 7.28125 -4.203125 "/></g></g></g><g fill="#000000" fill-opacity="1"><g transform="translate(14.003184, 53.908375)"><g><path d="M 9.203125 -8.359375 L 8.9375 -8.359375 C 8.832031 -8.953125 8.640625 -9.390625 8.359375 -9.671875 C 8.078125 -9.960938 7.6875 -10.109375 7.1875 -10.109375 L 3.796875 -10.109375 L 3.796875 -5.96875 L 6.578125 -5.96875 C 7.078125 -5.96875 7.429688 -6.09375 7.640625 -6.34375 C 7.847656 -6.59375 7.957031 -6.988281 7.96875 -7.53125 L 8.25 -7.53125 L 8.25 -3.75 L 7.96875 -3.75 C 7.96875 -4.289062 7.863281 -4.691406 7.65625 -4.953125 C 7.445312 -5.210938 7.078125 -5.34375 6.546875 -5.34375 L 3.796875 -5.34375 L 3.796875 -1.421875 C 3.796875 -0.890625 4.003906 -0.625 4.421875 -0.625 L 7.171875 -0.625 C 7.742188 -0.625 8.25 -0.796875 8.6875 -1.140625 C 9.125 -1.492188 9.476562 -2.003906 9.75 -2.671875 L 10.078125 -2.671875 L 9.203125 0 L 0.5625 0 L 0.5625 -0.28125 C 1.101562 -0.28125 1.492188 -0.367188 1.734375 -0.546875 C 1.984375 -0.734375 2.109375 -1.078125 2.109375 -1.578125 L 2.109375 -9.265625 C 2.109375 -9.679688 1.984375 -9.984375 1.734375 -10.171875 C 1.492188 -10.359375 1.101562 -10.453125 0.5625 -10.453125 L 0.5625 -10.734375 L 9.078125 -10.734375 Z M 9.203125 -8.359375 "/></g></g></g><g fill="#000000" fill-opacity="1"><g transform="translate(24.141675, 53.908375)"><g><path d="M 10.03125 -8.296875 L 9.734375 -8.296875 C 9.585938 -9.460938 8.957031 -10.046875 7.84375 -10.046875 L 6.046875 -10.046875 L 6.046875 -1.46875 C 6.046875 -1 6.179688 -0.679688 6.453125 -0.515625 C 6.722656 -0.359375 7.109375 -0.28125 7.609375 -0.28125 L 7.609375 0 L 2.796875 0 L 2.796875 -0.28125 C 3.347656 -0.28125 3.742188 -0.375 3.984375 -0.5625 C 4.234375 -0.75 4.359375 -1.085938 4.359375 -1.578125 L 4.359375 -10.046875 L 2.453125 -10.046875 C 1.960938 -10.046875 1.550781 -9.898438 1.21875 -9.609375 C 0.894531 -9.328125 0.710938 -8.890625 0.671875 -8.296875 L 0.390625 -8.296875 L 0.46875 -10.734375 L 9.953125 -10.734375 Z M 10.03125 -8.296875 "/></g></g></g><g fill="#000000" fill-opacity="1"><g transform="translate(34.280167, 53.908375)"><g><path d="M 5.359375 -10.453125 L 5.265625 -10.453125 C 4.742188 -10.453125 4.363281 -10.359375 4.125 -10.171875 C 3.894531 -9.984375 3.78125 -9.644531 3.78125 -9.15625 L 3.78125 -5.96875 L 9.0625 -5.96875 L 9.0625 -9.171875 C 9.0625 -9.660156 8.941406 -9.992188 8.703125 -10.171875 C 8.460938 -10.359375 8.082031 -10.453125 7.5625 -10.453125 L 7.46875 -10.453125 L 7.46875 -10.734375 L 12.3125 -10.734375 L 12.3125 -10.453125 C 11.757812 -10.453125 11.359375 -10.363281 11.109375 -10.1875 C 10.867188 -10.007812 10.75 -9.660156 10.75 -9.140625 L 10.75 -1.5625 C 10.75 -1.050781 10.867188 -0.707031 11.109375 -0.53125 C 11.359375 -0.363281 11.757812 -0.28125 12.3125 -0.28125 L 12.3125 0 L 7.46875 0 L 7.46875 -0.28125 C 8.039062 -0.28125 8.445312 -0.363281 8.6875 -0.53125 C 8.9375 -0.707031 9.0625 -1.054688 9.0625 -1.578125 L 9.0625 -5.34375 L 3.78125 -5.34375 L 3.78125 -1.578125 C 3.78125 -1.054688 3.898438 -0.707031 4.140625 -0.53125 C 4.390625 -0.363281 4.796875 -0.28125 5.359375 -0.28125 L 5.359375 0 L 0.546875 0 L 0.546875 -0.28125 C 1.097656 -0.289062 1.492188 -0.382812 1.734375 -0.5625 C 1.972656 -0.738281 2.09375 -1.078125 2.09375 -1.578125 L 2.09375 -9.171875 C 2.09375 -9.648438 1.972656 -9.984375 1.734375 -10.171875 C 1.492188 -10.359375 1.125 -10.453125 0.625 -10.453125 L 0.546875 -10.453125 L 0.546875 -10.734375 L 5.359375 -10.734375 Z M 5.359375 -10.453125 "/></g></g></g><g fill="#000000" fill-opacity="1"><g transform="translate(46.855639, 53.908375)"><g><path d="M 9.203125 -8.359375 L 8.9375 -8.359375 C 8.832031 -8.953125 8.640625 -9.390625 8.359375 -9.671875 C 8.078125 -9.960938 7.6875 -10.109375 7.1875 -10.109375 L 3.796875 -10.109375 L 3.796875 -5.96875 L 6.578125 -5.96875 C 7.078125 -5.96875 7.429688 -6.09375 7.640625 -6.34375 C 7.847656 -6.59375 7.957031 -6.988281 7.96875 -7.53125 L 8.25 -7.53125 L 8.25 -3.75 L 7.96875 -3.75 C 7.96875 -4.289062 7.863281 -4.691406 7.65625 -4.953125 C 7.445312 -5.210938 7.078125 -5.34375 6.546875 -5.34375 L 3.796875 -5.34375 L 3.796875 -1.421875 C 3.796875 -0.890625 4.003906 -0.625 4.421875 -0.625 L 7.171875 -0.625 C 7.742188 -0.625 8.25 -0.796875 8.6875 -1.140625 C 9.125 -1.492188 9.476562 -2.003906 9.75 -2.671875 L 10.078125 -2.671875 L 9.203125 0 L 0.5625 0 L 0.5625 -0.28125 C 1.101562 -0.28125 1.492188 -0.367188 1.734375 -0.546875 C 1.984375 -0.734375 2.109375 -1.078125 2.109375 -1.578125 L 2.109375 -9.265625 C 2.109375 -9.679688 1.984375 -9.984375 1.734375 -10.171875 C 1.492188 -10.359375 1.101562 -10.453125 0.5625 -10.453125 L 0.5625 -10.734375 L 9.078125 -10.734375 Z M 9.203125 -8.359375 "/></g></g></g><g fill="#000000" fill-opacity="1"><g transform="translate(56.99413, 53.908375)"><g><path d="M 9.25 -7.9375 C 9.25 -7.28125 9.023438 -6.710938 8.578125 -6.234375 C 8.128906 -5.765625 7.445312 -5.414062 6.53125 -5.1875 L 9.015625 -2.109375 C 9.316406 -1.734375 9.570312 -1.429688 9.78125 -1.203125 C 9.988281 -0.984375 10.242188 -0.78125 10.546875 -0.59375 C 10.859375 -0.414062 11.203125 -0.3125 11.578125 -0.28125 L 11.578125 0 L 8.78125 0 L 4.734375 -5.03125 L 3.703125 -5.03125 L 3.703125 -1.546875 C 3.703125 -1.085938 3.816406 -0.757812 4.046875 -0.5625 C 4.285156 -0.375 4.65625 -0.28125 5.15625 -0.28125 L 5.21875 -0.28125 L 5.21875 0 L 0.53125 0 L 0.53125 -0.28125 C 1.03125 -0.28125 1.398438 -0.367188 1.640625 -0.546875 C 1.890625 -0.722656 2.015625 -1.039062 2.015625 -1.5 L 2.015625 -9.265625 C 2.015625 -9.679688 1.890625 -9.984375 1.640625 -10.171875 C 1.398438 -10.359375 1.03125 -10.453125 0.53125 -10.453125 L 0.53125 -10.734375 L 5.546875 -10.734375 C 6.566406 -10.734375 7.4375 -10.503906 8.15625 -10.046875 C 8.882812 -9.585938 9.25 -8.882812 9.25 -7.9375 Z M 3.703125 -9.90625 L 3.703125 -5.5625 L 4.09375 -5.5625 C 5.144531 -5.5625 5.941406 -5.765625 6.484375 -6.171875 C 7.023438 -6.585938 7.296875 -7.160156 7.296875 -7.890625 C 7.296875 -8.523438 7.085938 -9.066406 6.671875 -9.515625 C 6.265625 -9.960938 5.6875 -10.1875 4.9375 -10.1875 C 4.53125 -10.1875 4.117188 -10.09375 3.703125 -9.90625 Z M 3.703125 -9.90625 "/></g></g></g><g fill="#000000" fill-opacity="1"><g transform="translate(68.757268, 53.908375)"><g><path d="M 5.484375 -10.453125 C 5.046875 -10.453125 4.710938 -10.410156 4.484375 -10.328125 C 4.253906 -10.253906 4.09375 -10.113281 4 -9.90625 C 3.90625 -9.707031 3.859375 -9.414062 3.859375 -9.03125 L 3.859375 -1.5625 C 3.859375 -1.207031 3.914062 -0.9375 4.03125 -0.75 C 4.144531 -0.570312 4.316406 -0.453125 4.546875 -0.390625 C 4.773438 -0.328125 5.085938 -0.289062 5.484375 -0.28125 L 5.484375 0 L 0.546875 0 L 0.546875 -0.28125 C 0.960938 -0.289062 1.28125 -0.328125 1.5 -0.390625 C 1.726562 -0.453125 1.894531 -0.570312 2 -0.75 C 2.113281 -0.9375 2.171875 -1.210938 2.171875 -1.578125 L 2.171875 -9.03125 C 2.171875 -9.414062 2.117188 -9.707031 2.015625 -9.90625 C 1.921875 -10.101562 1.757812 -10.238281 1.53125 -10.3125 C 1.3125 -10.394531 0.984375 -10.441406 0.546875 -10.453125 L 0.546875 -10.734375 L 5.484375 -10.734375 Z M 5.484375 -10.453125 "/></g></g></g><g fill="#000000" fill-opacity="1"><g transform="translate(74.490427, 53.908375)"><g><path d="M 1.796875 -2.078125 L 5.796875 -11.203125 L 6.078125 -11.203125 L 10.296875 -1.484375 C 10.453125 -1.128906 10.597656 -0.863281 10.734375 -0.6875 C 10.878906 -0.519531 11.03125 -0.410156 11.1875 -0.359375 C 11.34375 -0.304688 11.554688 -0.28125 11.828125 -0.28125 L 11.828125 0 L 7.421875 0 L 7.421875 -0.28125 C 7.796875 -0.28125 8.078125 -0.347656 8.265625 -0.484375 C 8.453125 -0.617188 8.546875 -0.800781 8.546875 -1.03125 C 8.546875 -1.226562 8.476562 -1.472656 8.34375 -1.765625 L 7.53125 -3.609375 L 3.203125 -3.609375 L 2.3125 -1.5625 C 2.207031 -1.351562 2.15625 -1.164062 2.15625 -1 C 2.15625 -0.519531 2.539062 -0.28125 3.3125 -0.28125 L 3.3125 0 L 0.21875 0 L 0.21875 -0.28125 C 0.476562 -0.3125 0.6875 -0.382812 0.84375 -0.5 C 1.007812 -0.625 1.15625 -0.800781 1.28125 -1.03125 C 1.414062 -1.257812 1.585938 -1.609375 1.796875 -2.078125 Z M 7.28125 -4.203125 L 5.375 -8.5625 L 3.46875 -4.203125 Z M 7.28125 -4.203125 "/></g></g></g></svg>